#!OML:ASF F:\VICON\USERDATA\INSTALL\rory3\rory3.ASF
:FULLY-SPECIFIED
:DEGREES
3959
root -3.87998 14.364 -14.8606 -561.118 -84.2692 559.19
lowerback 14.3626 2.063 -4.50487
upperback -1.45992 2.24015 3.1668
thorax -10.0032 1.41854 5.50007
lowerneck -11.6799 -5.01563 -1.74198
upperneck 19.5975 -6.91125 0.306294
head 8.05993 -3.47546 -0.340369
rclavicle -2.70223e-015 1.47101e-014
rhumerus -23.2555 14.5617 -76.8627
rradius 43.5968
rwrist -1.94015
rhand -16.7714 25.7829
rfingers 7.12502
rthumb 9.45587 -3.98492
lclavicle -2.70223e-015 1.47101e-014
lhumerus 49.0635 -41.6104 47.4441
lradius 74.7137
lwrist 62.3071
lhand 5.14996 26.0123
lfingers 7.12502
lthumb 30.513 53.5055
rfemur 13.7682 -3.20461 9.13497
rtibia 32.6339
rfoot -35.3288 -18.1482
rtoes -32.4248
lfemur -44.2348 7.78729 -14.3733
ltibia 72.5069
lfoot -20.8643 -7.16691
ltoes -4.8223
3960
root -3.88716 14.3624 -14.8612 -559.818 -84.3354 557.945
lowerback 14.2611 2.0942 -4.81146
upperback -1.44356 2.23545 3.19917
thorax -9.94171 1.43303 5.71464
lowerneck -11.6468 -5.03056 -1.84669
upperneck 19.5759 -6.92109 0.354882
head 8.05276 -3.48319 -0.307226
rclavicle 2.40281e-014 1.82882e-014
rhumerus -23.1845 15.0534 -76.8627
rradius 43.6977
rwrist -2.72545
rhand -16.7873 25.556
rfingers 7.12502
rthumb 9.44062 -4.21256
lclavicle 2.40281e-014 1.82882e-014
lhumerus 49.0344 -41.4734 47.6372
lradius 74.5538
lwrist 62.0428
lhand 5.30077 26.1326
lfingers 7.12502
lthumb 30.6568 53.5989
rfemur 13.7505 -3.08293 9.05879
rtibia 32.6121
rfoot -35.4765 -18.169
rtoes -32.2744
lfemur -44.2556 7.90343 -14.5462
ltibia 72.4621
lfoot -20.8922 -7.05247
ltoes -6.37032
3961
root -3.89564 14.3626 -14.8583 -559.459 -84.3876 557.671
lowerback 14.126 2.11425 -4.94959
upperback -1.42748 2.24712 3.23596
thorax -9.85579 1.44494 5.83347
lowerneck -11.559 -5.10608 -1.898
upperneck 19.4268 -7.01429 0.37683
head 7.99118 -3.52915 -0.295934
rclavicle -3.15571e-015 2.38542e-014
rhumerus -23.1049 15.5811 -76.8468
rradius 43.7276
rwrist -3.43617
rhand -16.5742 25.4631
rfingers 7.12502
rthumb 9.64617 -4.29604
lclavicle -3.15571e-015 2.38542e-014
lhumerus 49.0659 -41.3233 48.027
lradius 74.1859
lwrist 61.6721
lhand 5.60579 26.318
lfingers 7.12502
lthumb 30.9476 53.7295
rfemur 13.7201 -3.08524 9.03597
rtibia 32.586
rfoot -35.387 -18.3985
rtoes -32.7735
lfemur -44.343 8.06874 -14.6395
ltibia 72.4631
lfoot -20.9883 -7.0791
ltoes -7.24753
3962
root -3.90474 14.3627 -14.8544 -559.143 -84.4657 557.398
lowerback 14.0724 2.1441 -4.97337
upperback -1.43937 2.28039 3.17329
thorax -9.84075 1.46044 5.77053
lowerneck -11.5126 -5.12136 -1.70339
upperneck 19.3455 -7.05359 0.295628
head 7.94545 -3.54194 -0.354716
rclavicle -1.4387e-014 -6.36111e-015
rhumerus -23.1544 15.6627 -76.9398
rradius 43.7727
rwrist -3.78303
rhand -16.6218 25.2715
rfingers 7.12502
rthumb 9.60026 -4.48975
lclavicle -1.4387e-014 -6.36111e-015
lhumerus 49.2236 -41.3635 47.966
lradius 74.0192
lwrist 61.5391
lhand 5.52521 26.3894
lfingers 7.12502
lthumb 30.8708 53.8154
rfemur 13.7493 -3.20482 8.94632
rtibia 32.5592
rfoot -35.1091 -18.7836
rtoes -33.7531
lfemur -44.3639 7.91768 -14.6873
ltibia 72.4891
lfoot -20.8524 -7.55097
ltoes -3.57054
3963
root -3.91401 14.3603 -14.8485 -559.222 -84.5484 557.457
lowerback 14.1031 2.17081 -4.91135
upperback -1.45079 2.32034 3.10984
thorax -9.87064 1.47533 5.65491
lowerneck -11.5982 -5.11276 -1.76378
upperneck 19.4466 -7.05213 0.39222
head 8.00062 -3.53522 -0.317985
rclavicle -5.31749e-015 -1.19271e-015
rhumerus -23.1743 15.4805 -77.0225
rradius 43.7873
rwrist -4.067
rhand -16.4892 25.2167
rfingers 7.12502
rthumb 9.72817 -4.53858
lclavicle -5.31749e-015 -1.19271e-015
lhumerus 49.2792 -41.5153 47.7106
lradius 74.0904
lwrist 61.4675
lhand 5.59043 26.1759
lfingers 7.12502
lthumb 30.933 53.5902
rfemur 13.8971 -3.30086 8.8643
rtibia 32.4601
rfoot -35.0576 -18.8225
rtoes -33.7478
lfemur -44.33 7.74711 -14.7245
ltibia 72.5201
lfoot -20.7687 -7.77165
ltoes -0.555418
3964
root -3.92209 14.3577 -14.8439 -559.544 -84.6284 557.79
lowerback 14.1161 2.15483 -4.88635
upperback -1.46941 2.30165 3.09418
thorax -9.89413 1.46569 5.62747
lowerneck -11.7739 -5.12296 -2.19051
upperneck 19.7053 -7.06606 0.754401
head 8.14969 -3.53568 -0.142713
rclavicle 1.40827e-014 6.75868e-015
rhumerus -23.1907 15.4102 -77.0923
rradius 43.8461
rwrist -4.23935
rhand -16.4342 25.1427
rfingers 7.12502
rthumb 9.78125 -4.6101
lclavicle 1.40827e-014 6.75868e-015
lhumerus 49.1872 -41.5089 47.4917
lradius 74.1937
lwrist 61.4267
lhand 5.7279 26.0458
lfingers 7.12502
lthumb 31.064 53.4351
rfemur 14.015 -3.33286 8.88026
rtibia 32.3261
rfoot -34.9176 -19.2432
rtoes -34.3316
lfemur -44.3403 7.6853 -14.8108
ltibia 72.5299
lfoot -20.9123 -6.62149
ltoes -4.533
3965
root -3.92884 14.3573 -14.8398 -560.985 -84.6625 559.26
lowerback 14.1403 2.11533 -4.75595
upperback -1.48694 2.27395 3.13778
thorax -9.91965 1.44744 5.60684
lowerneck -11.852 -5.10667 -2.49707
upperneck 19.8429 -7.02503 0.93581
head 8.22833 -3.52009 -0.0342318
rclavicle 7.13761e-015 2.46493e-014
rhumerus -23.1042 15.4576 -77.1401
rradius 43.8439
rwrist -4.56962
rhand -16.6368 24.9212
rfingers 7.12502
rthumb 9.58578 -4.84076
lclavicle 7.13761e-015 2.46493e-014
lhumerus 49.1751 -41.4322 47.2901
lradius 74.2595
lwrist 61.4585
lhand 5.64783 26.2843
lfingers 7.12502
lthumb 30.9877 53.6881
rfemur 14.1366 -3.27496 9.07696
rtibia 32.1569
rfoot -34.9525 -19.3803
rtoes -34.1686
lfemur -44.4081 7.74516 -14.7488
ltibia 72.5835
lfoot -20.916 -5.87554
ltoes -7.61634
3966
root -3.93444 14.3588 -14.8307 -561.189 -84.7541 559.507
lowerback 14.1706 2.14445 -4.65868
upperback -1.50492 2.32412 3.08317
thorax -9.95664 1.46575 5.47836
lowerneck -11.9226 -5.13607 -2.30448
upperneck 19.9093 -7.06598 0.751534
head 8.24938 -3.54258 -0.133584
rclavicle -1.25483e-015 -4.37326e-015
rhumerus -23.1212 15.1972 -77.2225
rradius 43.958
rwrist -4.81495
rhand -16.7862 24.5471
rfingers 7.12502
rthumb 9.44166 -5.22144
lclavicle -1.25483e-015 -4.37326e-015
lhumerus 49.4676 -41.535 46.9715
lradius 74.3009
lwrist 61.4754
lhand 5.41954 26.0969
lfingers 7.12502
lthumb 30.7701 53.5419
rfemur 14.2488 -3.28042 9.07673
rtibia 32.0014
rfoot -35.0167 -19.4091
rtoes -34.1518
lfemur -44.4637 7.65325 -14.7765
ltibia 72.6299
lfoot -20.9659 -6.75604
ltoes -5.53833
3967
root -3.94236 14.3585 -14.8256 -561.23 -84.8588 559.597
lowerback 14.1659 2.20999 -4.60455
upperback -1.52274 2.41703 3.02784
thorax -9.98076 1.50668 5.36428
lowerneck -11.9205 -5.17747 -2.13503
upperneck 19.8358 -7.12546 0.626421
head 8.21366 -3.56985 -0.206846
rclavicle -1.34118e-014 -1.47101e-014
rhumerus -23.1262 14.7605 -77.2108
rradius 43.9151
rwrist -5.05815
rhand -16.5654 24.6883
rfingers 7.12502
rthumb 9.65468 -5.07047
lclavicle -1.34118e-014 -1.47101e-014
lhumerus 49.6439 -41.7266 46.8276
lradius 74.4154
lwrist 61.2825
lhand 5.36449 25.8159
lfingers 7.12502
lthumb 30.7176 53.2709
rfemur 14.3649 -3.23841 9.09608
rtibia 31.8386
rfoot -35.0811 -19.5092
rtoes -34.0772
lfemur -44.5125 7.59519 -14.8274
ltibia 72.6712
lfoot -21.0017 -7.59992
ltoes -3.9396
3968
root -3.94859 14.3573 -14.8273 -562.229 -84.8884 560.667
lowerback 14.1801 2.25787 -4.48429
upperback -1.58634 2.49633 2.95721
thorax -10.0602 1.53942 5.1983
lowerneck -11.844 -5.2326 -2.16972
upperneck 19.7664 -7.23933 0.839981
head 8.18815 -3.60606 -0.139837
rclavicle 3.65267e-015 7.15625e-015
rhumerus -23.1793 14.2417 -77.352
rradius 43.8532
rwrist -5.3239
rhand -16.5041 24.6505
rfingers 7.12502
rthumb 9.71382 -5.10549
lclavicle 3.65267e-015 7.15625e-015
lhumerus 49.8046 -41.9115 46.4552
lradius 74.609
lwrist 61.1441
lhand 5.39562 25.9081
lfingers 7.12502
lthumb 30.7473 53.3574
rfemur 14.4085 -3.05368 9.34604
rtibia 31.7146
rfoot -35.1378 -19.7069
rtoes -33.8239
lfemur -44.6235 7.59799 -14.7441
ltibia 72.7288
lfoot -21.0228 -7.66361
ltoes -3.5969
